HIERARCHY
ROOT Hips
{
	OFFSET 0.000000 0.000000 0.000000 
	CHANNELS 6 Xposition Yposition Zposition Yrotation Zrotation Xrotation 
	JOINT Lumbar
	{
		OFFSET 0.000000 0.000000 0.000000 
		CHANNELS 3 Zrotation Xrotation Yrotation
		JOINT Neck
		{
			OFFSET 0.000000 0.445665 0.000000 
			CHANNELS 3 Zrotation Xrotation Yrotation
			End Site
			{
				OFFSET 0.000000 0.227535 0.000000 
			}
		}
		JOINT RightShoulder
		{
			OFFSET 0.019635 0.377685 0.194865 
			CHANNELS 3 Zrotation Xrotation Yrotation
			JOINT RightElbow
			{
				OFFSET 0.000000 -0.243375 0.000000 
				CHANNELS 2 Zrotation Yrotation
				JOINT RightWrist
				{
					OFFSET 0.000000 -0.264825 0.000000 
					CHANNELS 2 Zrotation Xrotation
					End Site
					{
						OFFSET 0.006600 -0.176220 0.000990 
					}
				}
			}
		}
		JOINT LeftShoulder
		{
			OFFSET 0.019635 0.377685 -0.194865 
			CHANNELS 3 Zrotation Xrotation Yrotation
			JOINT LeftElbow
			{
				OFFSET 0.000000 -0.243375 0.000000 
				CHANNELS 2 Zrotation Yrotation
				JOINT LeftWrist
				{
					OFFSET 0.000000 -0.264825 0.000000 
					CHANNELS 2 Zrotation Xrotation
					End Site
					{
						OFFSET 0.006600 -0.176220 -0.000990 
					}
				}
			}
		}
	}
	JOINT RightHip
	{
		OFFSET 0.052140 -0.069960 0.075570 
		CHANNELS 3 Zrotation Xrotation Yrotation
		JOINT RightKnee
		{
			OFFSET 0.000000 -0.402270 0.000000 
			CHANNELS 1 Zrotation
			JOINT RightAnkle
			{
				OFFSET 0.000000 -0.404085 0.000000 
				CHANNELS 3 Zrotation Xrotation Yrotation
				End Site
				{
					OFFSET 0.204105 -0.089430 0.008415 
				}
			}
		}
	}
	JOINT LeftHip
	{
		OFFSET 0.052140 -0.069960 -0.075570 
		CHANNELS 3 Zrotation Xrotation Yrotation
		JOINT LeftKnee
		{
			OFFSET 0.000000 -0.402270 0.000000 
			CHANNELS 1 Zrotation
			JOINT LeftAnkle
			{
				OFFSET 0.000000 -0.404085 0.000000 
				CHANNELS 3 Zrotation Xrotation Yrotation
				End Site
				{
					OFFSET 0.204105 -0.089430 -0.008415 
				}
			}
		}
	}
}
MOTION
Frames: 31
Frame Time: 0.02
-0.13182 0.94549 0.16123 169.44547 0 0.09645 -1.7425 -0.04697 3.12356 -23.3642 -0.35489 3.16035 26.11088 -45.3252 51.65807 98.52142 72.31792 15.94064 -5.60269 30.60645 46.35898 -51.77816 102.12255 -101.18573 11.86392 -1.938 12.80553 -5.69519 -21.10296 -32.3943 8.18496 -2.52934 -1.9395 2.21857 0.22223 4.50753 -14.44121 9.65016 5.57245 6.56762
-0.1306 0.94673 0.15456 169.43098 0 -0.45705 -1.98341 0.23743 3.35927 -22.91882 -0.08864 3.3197 27.39447 -43.67169 51.63829 98.67973 64.62459 19.50671 -6.05308 33.22707 45.44298 -51.75141 102.88778 -104.02766 14.65204 -3.18169 12.16504 -4.32792 -20.29747 -31.01635 7.63005 -2.62019 -2.38809 2.54054 1.1826 4.59103 -15.03719 9.61939 5.5536 6.5689
-0.12924 0.94797 0.14764 169.45043 0 -1.03051 -2.2393 0.54872 3.604 -22.41901 0.20083 3.44834 28.63631 -41.36822 51.78214 97.84061 59.51994 20.09633 -7.32254 35.90275 43.95963 -51.77483 102.81964 -110.17349 15.30082 -3.70731 11.51494 -2.9217 -19.54865 -29.59359 6.97284 -2.80313 -3.05781 2.86018 2.17802 4.56043 -15.61094 9.56782 5.52808 6.59718
-0.12796 0.94918 0.14086 169.45273 0 -1.5882 -2.47987 0.84841 3.84164 -21.96682 0.46857 3.59235 29.93858 -39.34645 51.84581 97.40417 53.45905 22.00478 -8.15129 38.54758 42.68442 -51.77657 103.03114 -114.29522 16.79688 -4.54825 10.87314 -1.54646 -18.76695 -28.20182 6.36711 -2.94005 -3.61544 3.17411 3.14834 4.57645 -16.18292 9.52472 5.508 6.61713
-0.12663 0.95049 0.13395 169.46202 0 -2.1762 -2.75744 1.14643 4.09272 -21.41689 0.78269 3.73093 31.06786 -37.36876 51.92987 97.20385 46.3206 24.13905 -9.23806 41.22646 41.60914 -51.77177 103.68192 -120.44744 18.84819 -5.48282 10.21305 -0.1095 -18.01026 -26.75884 5.73507 -3.09706 -4.23 3.51627 4.16098 4.61367 -16.80416 9.48491 5.47831 6.62123
-0.12536 0.95161 0.12727 169.46503 0 -2.70472 -2.96107 1.45345 4.31773 -21.05711 1.00682 3.87316 32.54974 -35.15434 52.01098 96.25552 42.09533 25.0591 -9.99983 43.84742 39.99045 -51.7919 103.20021 -123.30008 19.22906 -6.02599 9.58931 1.20553 -17.21956 -25.41387 5.13615 -3.23331 -4.77602 3.80047 5.09218 4.58041 -17.31995 9.434 5.4668 6.6641
-0.12432 0.95228 0.12124 169.44117 0 -3.06802 -2.95726 1.78512 4.46704 -21.24708 0.96684 4.03478 34.97829 -32.39685 52.05739 93.6194 45.3143 23.41672 -9.58734 46.2501 36.96552 -51.88659 99.94138 -115.25227 15.46426 -5.76416 9.07 2.17973 -16.28865 -24.3568 4.64668 -3.2875 -5.07037 3.91033 5.79285 4.37538 -17.52524 9.35339 5.50775 6.81186
-0.12334 0.95276 0.11544 169.41013 0 -3.36995 -2.87833 2.12389 4.58967 -21.62827 0.83715 4.2006 37.76869 -29.43639 52.09468 90.24043 51.38691 20.6335 -8.83532 48.59836 33.42582 -52.00299 95.54673 -103.949 10.10141 -5.11273 8.58772 3.02808 -15.32822 -23.40014 4.19622 -3.31752 -5.28775 3.96514 6.40946 4.10458 -17.63056 9.26333 5.56707 6.99681
-0.12232 0.95331 0.10955 169.38312 0 -3.69698 -2.83338 2.45487 4.72571 -21.91504 0.75524 4.36345 40.41786 -26.59861 52.12646 87.10999 56.15801 18.31946 -8.2947 50.99989 30.14737 -52.0966 91.57068 -94.81254 5.49817 -4.56393 8.08743 3.92987 -14.40248 -22.39386 3.73294 -3.35987 -5.54542 4.05398 7.06195 3.86697 -17.79641 9.1802 5.61746 7.16183
-0.12134 0.95393 0.10361 169.35382 0 -4.03589 -2.78959 2.80509 4.85778 -22.23247 0.64529 4.53029 42.97022 -23.59902 52.19943 84.31304 61.05319 16.10682 -7.54893 53.28589 26.71953 -52.24143 87.96324 -82.95499 0.66606 -4.28996 7.59107 4.84924 -13.3876 -21.40106 3.24453 -3.40039 -5.79132 4.10228 7.72493 3.6105 -17.8937 9.0846 5.66995 7.34067
-0.12029 0.95435 0.09784 169.32743 0 -4.33602 -2.72544 3.11776 4.99025 -22.53109 0.5712 4.68949 45.80748 -20.90986 52.18881 80.66797 66.31325 13.45585 -7.12947 55.79533 23.50583 -52.2904 83.34721 -75.86511 -4.02356 -3.37908 7.09629 5.70121 -12.55225 -20.40671 2.82001 -3.43703 -6.03708 4.22503 8.34637 3.38034 -18.11544 9.01375 5.72268 7.49908
-0.11896 0.95433 0.09247 169.30786 0 -4.53657 -2.62232 3.31433 5.14273 -22.74102 0.62634 4.83316 49.36729 -19.02291 51.8901 74.78603 72.05835 9.84049 -7.77636 58.96133 20.86233 -52.01173 76.0755 -83.45486 -8.0726 -0.64346 6.59008 6.40004 -12.20737 -19.36666 2.55537 -3.47432 -6.32854 4.5401 8.8669 3.23206 -18.66043 9.00687 5.77012 7.5933
-0.11755 0.95411 0.08729 169.2917 0 -4.70129 -2.50131 3.47443 5.29433 -22.92405 0.71923 4.96801 53.19466 -17.4807 51.51549 68.0993 78.02596 5.84595 -8.7448 62.34663 18.48412 -51.64404 67.86269 -95.80878 -11.88703 2.68692 6.08558 7.03441 -12.04706 -18.32531 2.35567 -3.50686 -6.6156 4.93653 9.34952 3.11611 -19.34165 9.0263 5.81745 7.66542
-0.11619 0.95395 0.08205 169.27594 0 -4.88753 -2.38933 3.65845 5.438 -23.11285 0.78907 5.10262 56.88668 -15.84949 51.21688 61.83145 83.76501 2.05942 -9.50694 65.61687 16.08161 -51.35761 60.17878 -105.48909 -15.70195 5.63465 5.58471 7.69713 -11.80917 -17.29544 2.13116 -3.53777 -6.88658 5.31381 9.85387 2.98822 -19.99125 9.03854 5.86584 7.74649
-0.11479 0.95389 0.0767 169.25232 0 -5.05047 -2.2715 3.81287 5.61533 -23.33466 0.87981 5.25495 60.65886 -13.915 50.75265 55.29702 90.14685 -1.9263 -10.50825 68.95948 13.24742 -50.90923 52.01589 -117.18781 -20.01603 9.06735 5.06627 8.36098 -11.54043 -16.22168 1.88744 -3.58469 -7.23425 5.61577 10.33667 2.83918 -20.51336 9.0315 5.91069 7.83296
-0.11346 0.95359 0.07163 169.24521 0 -5.25303 -2.16188 4.01874 5.72344 -23.47994 0.93821 5.36865 64.31102 -12.70945 50.60313 49.15618 95.20068 -5.56339 -11.09653 72.19257 11.39084 -50.76477 44.6565 -125.87706 -23.22121 11.63028 4.58465 9.0069 -11.38424 -15.23945 1.6995 -3.59642 -7.41849 6.09231 10.85598 2.75173 -21.32976 9.06952 5.96252 7.90314
-0.11231 0.95266 0.06729 169.2895 0 -5.58415 -2.08561 4.38781 5.63412 -23.41048 0.88917 5.37389 67.66468 -13.32636 51.44404 44.13577 96.55353 -8.20776 -10.4278 75.16702 12.09937 -51.57943 39.62993 -124.9196 -23.34337 11.60611 4.2015 9.6357 -11.45879 -14.49539 1.64238 -3.52067 -7.1834 7.0508 11.48902 2.74936 -22.96686 9.23804 6.03482 7.92837
-0.11126 0.95149 0.06324 169.34915 0 -5.9546 -2.01732 4.80752 5.4764 -23.2661 0.80817 5.34106 70.86697 -14.68535 52.58325 39.57339 96.54419 -10.47 -9.34101 78.00466 13.79846 -52.68162 35.4721 -120.8181 -22.36301 10.69169 3.85561 10.24599 -11.64687 -13.84583 1.64026 -3.40815 -6.77868 8.17824 12.15934 2.82197 -24.88711 9.44862 6.11386 7.93927
-0.11021 0.95044 0.05908 169.39737 0 -6.30076 -1.94179 5.19611 5.35461 -23.16129 0.74838 5.32852 74.07373 -15.77591 53.52086 34.91252 97.12976 -12.86052 -8.47202 80.84272 15.09198 -53.59145 30.99845 -118.28272 -21.93178 10.20872 3.49442 10.85477 -11.806 -13.16224 1.61765 -3.30704 -6.43164 9.21625 12.81128 2.91193 -26.65248 9.6319 6.1889 7.95946
-0.10893 0.94934 0.05483 169.46421 0 -6.67337 -1.88132 5.61799 5.21291 -23.03128 0.66256 5.30398 77.56647 -16.58999 54.74229 29.76088 97.82502 -15.4584 -7.49659 83.95366 16.20515 -54.77075 26.15732 -115.32725 -21.29455 9.63257 3.12677 11.50402 -11.87603 -12.44085 1.57862 -3.22829 -6.16599 10.31252 13.47001 2.78842 -28.53766 9.85105 6.2678 7.9652
-0.10818 0.94829 0.05084 169.49624 0 -6.99988 -1.79104 5.98259 5.0957 -22.93764 0.62172 5.29436 80.418 -18.14897 55.43477 25.74978 97.96743 -17.52635 -6.6395 86.45517 17.92702 -55.443 22.30083 -112.44432 -20.82225 9.0322 2.78097 12.06432 -12.1561 -11.82083 1.5856 -3.09408 -5.69107 11.32393 14.12133 3.12375 -30.23315 10.00465 6.34039 8.00041
-0.10882 0.94739 0.04744 169.42492 0 -7.19665 -1.62172 6.18056 5.06942 -22.95111 0.72281 5.34527 81.5828 -21.60546 54.67458 24.79238 96.88945 -18.23957 -6.20981 87.3523 21.07652 -54.77306 20.95519 -110.45995 -21.11858 8.57057 2.49034 12.39335 -12.98686 -11.45664 1.7096 -2.81819 -4.6772 12.0812 14.76547 4.73444 -31.38353 9.97091 6.39243 8.09938
-0.11001 0.94655 0.0443 169.31855 0 -7.34449 -1.42134 6.31855 5.069 -23.00603 0.86824 5.41078 82.09578 -25.77944 53.35628 24.9689 95.30561 -18.42828 -5.91243 87.62987 24.80427 -53.5581 20.57531 -108.64535 -21.61252 8.11416 2.21994 12.63195 -14.02328 -11.19179 1.87714 -2.48773 -3.46027 12.74271 15.39672 6.79841 -32.32386 9.86896 6.43795 8.23252
-0.111 0.9457 0.04107 169.23061 0 -7.51026 -1.23172 6.48163 5.05236 -23.04973 0.98673 5.46296 82.87706 -29.60956 52.24178 24.61863 93.96983 -18.84462 -5.55394 88.16236 28.27424 -52.51065 19.75425 -106.77756 -21.98759 7.6608 1.93729 12.90591 -14.96705 -10.88158 2.0221 -2.18013 -2.33656 13.43368 16.01955 8.63818 -33.32792 9.79541 6.48771 8.36408
-0.11177 0.94477 0.03772 169.13309 0 -7.69568 -1.05613 6.65573 5.05192 -23.05868 1.13289 5.5417 83.77761 -33.54376 51.35118 24.32881 92.51048 -19.29134 -5.18502 88.80872 31.76148 -51.81703 18.96933 -104.70744 -22.44388 7.15541 1.66769 13.20363 -15.91614 -10.5739 2.18049 -1.87774 -1.19817 14.19038 16.70453 10.56059 -34.47489 9.73399 6.5332 8.43646
-0.11312 0.94401 0.03468 169.04645 0 -7.82786 -0.84435 6.7918 5.02514 -23.15079 1.23226 5.56955 84.26875 -37.41829 49.85388 24.18081 91.20549 -19.55751 -4.87489 89.06497 35.3325 -50.24656 18.33128 -103.1325 -22.79597 6.76924 1.37669 13.43033 -16.89562 -10.28539 2.32094 -1.55417 -0.05035 14.78469 17.25575 12.41359 -35.27192 9.63095 6.58483 8.64015
-0.11593 0.94366 0.03239 169.0032 0 -7.8263 -0.53589 6.83891 4.91644 -23.46275 1.19226 5.44957 83.85527 -40.97737 46.84656 24.11011 90.46092 -19.43375 -4.69441 88.45898 39.02699 -46.44555 17.82657 -102.9513 -22.78648 6.73097 1.00883 13.48588 -17.9585 -10.00695 2.39707 -1.16695 1.1245 14.95702 17.44718 13.99684 -35.14076 9.42632 6.6646 9.19956
-0.11928 0.94347 0.03042 168.9712 0 -7.77243 -0.19297 6.84927 4.7813 -23.85685 1.10366 5.27875 83.03871 -44.44194 43.23917 24.14783 89.89363 -19.15168 -4.57062 87.46991 42.77359 -41.7705 17.43895 -103.26525 -22.67582 6.81329 0.62087 13.47267 -19.03508 -9.74715 2.45397 -0.76387 2.29153 14.96765 17.50311 15.48769 -34.66568 9.18268 6.74907 9.88915
-0.12238 0.94321 0.02833 168.9308 0 -7.74143 0.13153 6.87533 4.66037 -24.21402 1.03699 5.13385 82.36623 -47.93132 39.88858 24.15767 89.2457 -18.95724 -4.42322 86.6162 46.47052 -37.45426 17.01681 -103.32331 -22.63357 6.83156 0.25045 13.48914 -20.07206 -9.49078 2.52231 -0.38046 3.42804 15.04968 17.61658 16.99939 -34.35538 8.95877 6.82488 10.51898
-0.12555 0.94292 0.02615 168.90285 0 -7.71245 0.46926 6.90367 4.53071 -24.57265 0.97246 4.9776 81.84367 -51.5281 36.59369 24.1164 88.58122 -18.67916 -4.27125 85.90717 50.30198 -33.27403 16.54935 -103.51549 -22.50206 6.88803 -0.15441 13.50891 -21.25685 -9.18859 2.58146 0.05724 4.71553 15.13792 17.7464 18.61776 -34.0023 8.72362 6.92743 11.15495
-0.12869 0.94273 0.02424 168.85235 0 -7.66759 0.78659 6.91918 4.41304 -24.94504 0.8914 4.83267 80.91198 -54.86267 33.03772 24.1933 87.99799 -18.54318 -4.14039 84.81035 53.85292 -28.61918 16.1922 -103.54429 -22.53093 6.89419 -0.49296 13.50683 -22.13474 -8.98384 2.65376 0.38525 5.68409 15.17523 17.8105 19.98414 -33.65913 8.50404 6.97621 11.80556
